<svg xmlns="http://www.w3.org/2000/svg" id="b" viewBox="0 0 2417.76 2811.38" width="2417.76" height="2811.38"><metadata><rdf:RDF xmlns:rdf="http://www.w3.org/1999/02/22-rdf-syntax-ns#" xmlns:dc="http://purl.org/dc/elements/1.1/"><rdf:Description><dc:creator>RealFaviconGenerator</dc:creator><dc:source>https://realfavicongenerator.net</dc:source></rdf:Description></rdf:RDF></metadata><defs><style>.d{fill:#33245d;}</style></defs><g id="c"><path class="d" d="M2417.76,0l-275.66,438.32-514.1,182.56-74.54,301.75,506.66-175.13,3.74,59.62-521.59,171.38-40.96,189.99,558.8-193.74v63.31l-573.72,193.74-277.5,286.83-284.99-290.58-577.47-197.42v-59.62l558.8,193.74-44.7-186.25-506.61-182.56-7.49-59.62,495.49,186.3-44.7-294.32-521.53-189.99L0,0l163.95,1261.61,1039.37,1549.78,1035.63-1538.6L2417.76,0ZM978.57,1889.98l-551.37-588.64,690.4,265.77-139.03,322.87ZM1428.07,1889.98l-131.65-327.85,692.91-260.79-561.26,588.64Z"></path><polygon class="d" points="262.82 2325.12 1070.1 2811.37 162.22 1388.1 262.82 2325.12"></polygon><polygon class="d" points="2141.16 2325.12 2241.76 1388.1 1333.89 2811.37 2141.16 2325.12"></polygon><path class="d" d="M1208.91,1456.85l214.19-254.81L1629.24,0l-315.39,528.96-208.66,2.52L787.3,0l198.71,1192.09,222.91,264.76ZM1286.53,762.43l-78.23,295.55s-73.26-263.25-90.69-295.55h168.93Z"></path></g></svg>